<mxfile host="Electron" agent="Mozilla/5.0 (X11; Linux x86_64) AppleWebKit/537.36 (KHTML, like Gecko) draw.io/26.0.16 Chrome/132.0.6834.210 Electron/34.3.2 Safari/537.36" version="26.0.16">
  <diagram name="Page-1" id="5f0bae14-7c28-e335-631c-24af17079c00">
    <mxGraphModel dx="1311" dy="1832" grid="1" gridSize="10" guides="1" tooltips="1" connect="1" arrows="1" fold="1" page="1" pageScale="1" pageWidth="1100" pageHeight="850" background="none" math="0" shadow="0">
      <root>
        <mxCell id="0" />
        <mxCell id="1" parent="0" />
        <mxCell id="ktRE7d3KSktnaOX6q5xe-1" value="Gateway" style="whiteSpace=wrap;html=1;aspect=fixed;" parent="1" vertex="1">
          <mxGeometry x="450" y="128.13" width="130" height="130" as="geometry" />
        </mxCell>
        <mxCell id="ktRE7d3KSktnaOX6q5xe-3" value="" style="whiteSpace=wrap;html=1;aspect=fixed;" parent="1" vertex="1">
          <mxGeometry x="235.62" y="129.38" width="128.75" height="128.75" as="geometry" />
        </mxCell>
        <mxCell id="ktRE7d3KSktnaOX6q5xe-4" value="AuthenticationService" style="text;html=1;align=center;verticalAlign=middle;whiteSpace=wrap;rounded=0;" parent="1" vertex="1">
          <mxGeometry x="270" y="180" width="60" height="25" as="geometry" />
        </mxCell>
        <mxCell id="ktRE7d3KSktnaOX6q5xe-7" value="" style="shape=flexArrow;endArrow=classic;html=1;rounded=0;" parent="1" edge="1">
          <mxGeometry width="50" height="50" relative="1" as="geometry">
            <mxPoint x="235.62" y="40" as="sourcePoint" />
            <mxPoint x="300" y="40" as="targetPoint" />
          </mxGeometry>
        </mxCell>
        <mxCell id="ktRE7d3KSktnaOX6q5xe-8" value="gRPC(?)" style="text;html=1;align=center;verticalAlign=middle;whiteSpace=wrap;rounded=0;" parent="1" vertex="1">
          <mxGeometry x="310" y="30" width="60" height="30" as="geometry" />
        </mxCell>
        <mxCell id="ktRE7d3KSktnaOX6q5xe-10" value="UserService" style="whiteSpace=wrap;html=1;aspect=fixed;" parent="1" vertex="1">
          <mxGeometry x="229.99" y="330" width="130" height="130" as="geometry" />
        </mxCell>
        <mxCell id="ktRE7d3KSktnaOX6q5xe-14" value="AuthorService" style="whiteSpace=wrap;html=1;aspect=fixed;" parent="1" vertex="1">
          <mxGeometry x="850" y="330" width="130" height="130" as="geometry" />
        </mxCell>
        <mxCell id="ktRE7d3KSktnaOX6q5xe-15" value="ModeratorService" style="whiteSpace=wrap;html=1;aspect=fixed;" parent="1" vertex="1">
          <mxGeometry x="450" y="330" width="130" height="130" as="geometry" />
        </mxCell>
        <mxCell id="ktRE7d3KSktnaOX6q5xe-16" value="Actor" style="shape=umlActor;verticalLabelPosition=bottom;verticalAlign=top;html=1;outlineConnect=0;" parent="1" vertex="1">
          <mxGeometry x="500" y="-30" width="30" height="60" as="geometry" />
        </mxCell>
        <mxCell id="ktRE7d3KSktnaOX6q5xe-22" value="Kafka" style="shape=cylinder3;whiteSpace=wrap;html=1;boundedLbl=1;backgroundOutline=1;size=15;" parent="1" vertex="1">
          <mxGeometry x="675" y="520" width="60" height="80" as="geometry" />
        </mxCell>
        <mxCell id="ktRE7d3KSktnaOX6q5xe-32" value="Recommendation&lt;br&gt;Service" style="whiteSpace=wrap;html=1;aspect=fixed;" parent="1" vertex="1">
          <mxGeometry x="640" y="660" width="130" height="130" as="geometry" />
        </mxCell>
        <mxCell id="ktRE7d3KSktnaOX6q5xe-33" value="NewsService" style="whiteSpace=wrap;html=1;aspect=fixed;" parent="1" vertex="1">
          <mxGeometry x="780" y="660" width="130" height="130" as="geometry" />
        </mxCell>
        <mxCell id="ktRE7d3KSktnaOX6q5xe-34" value="NotificationService" style="whiteSpace=wrap;html=1;aspect=fixed;" parent="1" vertex="1">
          <mxGeometry x="480" y="660" width="130" height="130" as="geometry" />
        </mxCell>
        <mxCell id="ktRE7d3KSktnaOX6q5xe-35" value="AnalyticsService" style="whiteSpace=wrap;html=1;aspect=fixed;" parent="1" vertex="1">
          <mxGeometry x="330" y="660" width="130" height="130" as="geometry" />
        </mxCell>
        <mxCell id="RTW8HtgF1-fYay0Yg4I0-2" value="postgreSQL" style="shape=datastore;whiteSpace=wrap;html=1;" vertex="1" parent="1">
          <mxGeometry x="510" y="420" width="70" height="40" as="geometry" />
        </mxCell>
        <mxCell id="RTW8HtgF1-fYay0Yg4I0-3" value="postgreSQL" style="shape=datastore;whiteSpace=wrap;html=1;" vertex="1" parent="1">
          <mxGeometry x="289.99" y="420" width="70" height="40" as="geometry" />
        </mxCell>
        <mxCell id="RTW8HtgF1-fYay0Yg4I0-4" value="postgreSQL" style="shape=datastore;whiteSpace=wrap;html=1;" vertex="1" parent="1">
          <mxGeometry x="910" y="420" width="70" height="40" as="geometry" />
        </mxCell>
        <mxCell id="RTW8HtgF1-fYay0Yg4I0-5" value="postgreSQL" style="shape=datastore;whiteSpace=wrap;html=1;" vertex="1" parent="1">
          <mxGeometry x="294.37" y="218.13" width="70" height="40" as="geometry" />
        </mxCell>
        <mxCell id="RTW8HtgF1-fYay0Yg4I0-6" value="ReaderService" style="whiteSpace=wrap;html=1;aspect=fixed;" vertex="1" parent="1">
          <mxGeometry x="735" y="160" width="130" height="130" as="geometry" />
        </mxCell>
        <mxCell id="RTW8HtgF1-fYay0Yg4I0-7" value="postgreSQL" style="shape=datastore;whiteSpace=wrap;html=1;" vertex="1" parent="1">
          <mxGeometry x="795" y="250" width="70" height="40" as="geometry" />
        </mxCell>
        <mxCell id="RTW8HtgF1-fYay0Yg4I0-9" value="Redis" style="shape=trapezoid;perimeter=trapezoidPerimeter;whiteSpace=wrap;html=1;fixedSize=1;" vertex="1" parent="1">
          <mxGeometry x="130" y="660" width="120" height="60" as="geometry" />
        </mxCell>
        <mxCell id="RTW8HtgF1-fYay0Yg4I0-12" value="" style="shape=flexArrow;endArrow=classic;html=1;rounded=0;" edge="1" parent="1">
          <mxGeometry width="50" height="50" relative="1" as="geometry">
            <mxPoint x="440" y="260" as="sourcePoint" />
            <mxPoint x="370" y="320" as="targetPoint" />
          </mxGeometry>
        </mxCell>
        <mxCell id="RTW8HtgF1-fYay0Yg4I0-13" value="" style="endArrow=classic;html=1;rounded=0;" edge="1" parent="1">
          <mxGeometry width="50" height="50" relative="1" as="geometry">
            <mxPoint x="510" y="60" as="sourcePoint" />
            <mxPoint x="510" y="120" as="targetPoint" />
          </mxGeometry>
        </mxCell>
        <mxCell id="RTW8HtgF1-fYay0Yg4I0-14" value="HTTP/1" style="text;html=1;align=center;verticalAlign=middle;whiteSpace=wrap;rounded=0;" vertex="1" parent="1">
          <mxGeometry x="520" y="70" width="60" height="30" as="geometry" />
        </mxCell>
        <mxCell id="RTW8HtgF1-fYay0Yg4I0-15" value="" style="shape=flexArrow;endArrow=classic;html=1;rounded=0;" edge="1" parent="1">
          <mxGeometry width="50" height="50" relative="1" as="geometry">
            <mxPoint x="510" y="270" as="sourcePoint" />
            <mxPoint x="510" y="320" as="targetPoint" />
          </mxGeometry>
        </mxCell>
        <mxCell id="RTW8HtgF1-fYay0Yg4I0-16" value="" style="shape=flexArrow;endArrow=classic;html=1;rounded=0;" edge="1" parent="1">
          <mxGeometry width="50" height="50" relative="1" as="geometry">
            <mxPoint x="580" y="258.13" as="sourcePoint" />
            <mxPoint x="650" y="320" as="targetPoint" />
          </mxGeometry>
        </mxCell>
        <mxCell id="RTW8HtgF1-fYay0Yg4I0-17" value="" style="shape=flexArrow;endArrow=classic;html=1;rounded=0;" edge="1" parent="1">
          <mxGeometry width="50" height="50" relative="1" as="geometry">
            <mxPoint x="600" y="210" as="sourcePoint" />
            <mxPoint x="720" y="210" as="targetPoint" />
          </mxGeometry>
        </mxCell>
        <mxCell id="RTW8HtgF1-fYay0Yg4I0-18" value="BookService" style="whiteSpace=wrap;html=1;aspect=fixed;" vertex="1" parent="1">
          <mxGeometry x="640" y="330" width="130" height="130" as="geometry" />
        </mxCell>
        <mxCell id="RTW8HtgF1-fYay0Yg4I0-19" value="postgreSQL" style="shape=datastore;whiteSpace=wrap;html=1;" vertex="1" parent="1">
          <mxGeometry x="700" y="420" width="70" height="40" as="geometry" />
        </mxCell>
        <mxCell id="RTW8HtgF1-fYay0Yg4I0-24" value="Kafka" style="shape=cylinder3;whiteSpace=wrap;html=1;boundedLbl=1;backgroundOutline=1;size=15;" vertex="1" parent="1">
          <mxGeometry x="100" y="152.5" width="60" height="80" as="geometry" />
        </mxCell>
        <mxCell id="RTW8HtgF1-fYay0Yg4I0-25" value="" style="endArrow=classic;html=1;rounded=0;" edge="1" parent="1">
          <mxGeometry width="50" height="50" relative="1" as="geometry">
            <mxPoint x="220" y="200" as="sourcePoint" />
            <mxPoint x="170" y="200" as="targetPoint" />
          </mxGeometry>
        </mxCell>
        <mxCell id="RTW8HtgF1-fYay0Yg4I0-26" value="" style="endArrow=classic;html=1;rounded=0;" edge="1" parent="1">
          <mxGeometry width="50" height="50" relative="1" as="geometry">
            <mxPoint x="130" y="250" as="sourcePoint" />
            <mxPoint x="220" y="390" as="targetPoint" />
          </mxGeometry>
        </mxCell>
        <mxCell id="RTW8HtgF1-fYay0Yg4I0-27" value="" style="endArrow=classic;startArrow=classic;html=1;rounded=0;" edge="1" parent="1">
          <mxGeometry width="50" height="50" relative="1" as="geometry">
            <mxPoint x="700" y="510" as="sourcePoint" />
            <mxPoint x="700" y="470" as="targetPoint" />
          </mxGeometry>
        </mxCell>
        <mxCell id="RTW8HtgF1-fYay0Yg4I0-28" value="" style="endArrow=classic;startArrow=classic;html=1;rounded=0;" edge="1" parent="1">
          <mxGeometry width="50" height="50" relative="1" as="geometry">
            <mxPoint x="520" y="470" as="sourcePoint" />
            <mxPoint x="660" y="550" as="targetPoint" />
          </mxGeometry>
        </mxCell>
        <mxCell id="RTW8HtgF1-fYay0Yg4I0-30" value="" style="shape=flexArrow;endArrow=classic;startArrow=classic;html=1;rounded=0;" edge="1" parent="1">
          <mxGeometry width="100" height="100" relative="1" as="geometry">
            <mxPoint x="370" y="190" as="sourcePoint" />
            <mxPoint x="440" y="190" as="targetPoint" />
          </mxGeometry>
        </mxCell>
        <mxCell id="RTW8HtgF1-fYay0Yg4I0-31" value="" style="shape=flexArrow;endArrow=classic;startArrow=classic;html=1;rounded=0;" edge="1" parent="1">
          <mxGeometry width="100" height="100" relative="1" as="geometry">
            <mxPoint x="290" y="320" as="sourcePoint" />
            <mxPoint x="290" y="260" as="targetPoint" />
          </mxGeometry>
        </mxCell>
        <mxCell id="RTW8HtgF1-fYay0Yg4I0-32" value="" style="shape=flexArrow;endArrow=classic;html=1;rounded=0;" edge="1" parent="1">
          <mxGeometry width="50" height="50" relative="1" as="geometry">
            <mxPoint x="595" y="141.26" as="sourcePoint" />
            <mxPoint x="950" y="320" as="targetPoint" />
            <Array as="points">
              <mxPoint x="950" y="141" />
            </Array>
          </mxGeometry>
        </mxCell>
        <mxCell id="RTW8HtgF1-fYay0Yg4I0-33" value="" style="shape=flexArrow;endArrow=classic;startArrow=classic;html=1;rounded=0;" edge="1" parent="1">
          <mxGeometry width="100" height="100" relative="1" as="geometry">
            <mxPoint x="780" y="400" as="sourcePoint" />
            <mxPoint x="840" y="400" as="targetPoint" />
          </mxGeometry>
        </mxCell>
        <mxCell id="RTW8HtgF1-fYay0Yg4I0-34" value="" style="shape=flexArrow;endArrow=classic;html=1;rounded=0;" edge="1" parent="1">
          <mxGeometry width="50" height="50" relative="1" as="geometry">
            <mxPoint x="730" y="290" as="sourcePoint" />
            <mxPoint x="690" y="320" as="targetPoint" />
          </mxGeometry>
        </mxCell>
      </root>
    </mxGraphModel>
  </diagram>
</mxfile>
